<svg xmlns="http://www.w3.org/2000/svg" viewBox="0 0 266.38 192.2"><g data-name="Layer 2"><g data-name="Layer 1" fill-rule="evenodd"><path d="M13.91 118.65H8.96v-16.61H.23v-3.01h22.39v3.01h-8.71v16.61zm17.5-3H44.7v3H26.46V99.03h17.52v3.01H31.41v5.08H42.2v3H31.41v5.53zm31.7-13.95a13.74 13.74 0 00-3.73.49 8.86 8.86 0 00-2.93 1.4 6.61 6.61 0 00-1.91 2.29 6.73 6.73 0 00-.68 3.1 6.94 6.94 0 00.62 3 5.88 5.88 0 001.8 2.19 8.14 8.14 0 002.86 1.33 14.91 14.91 0 003.86.5 27.91 27.91 0 003.14-.17 25.47 25.47 0 003-.51v3.09a28.86 28.86 0 01-3 .46 33.79 33.79 0 01-3.4.17 23.29 23.29 0 01-6-.71 12.79 12.79 0 01-4.35-2 8.39 8.39 0 01-2.63-3.11 9 9 0 01-.87-4 9.36 9.36 0 01.93-4.16 9.73 9.73 0 012.71-3.34 13.32 13.32 0 014.43-2.21 20.87 20.87 0 016-.82 30.46 30.46 0 013.26.17 21 21 0 012.76.47v3.06a24.93 24.93 0 00-3-.52 25.53 25.53 0 00-2.87-.17zm15.98 5.41h12.52v-8.08h4.95v19.62h-4.95v-8.53H79.09v8.53h-4.95V99.03h4.95v8.08zm38.02 1.05a66 66 0 014.73 5.33h.16c-.16-2.55-.24-4.4-.24-5.57V99h5v19.61h-5.19l-8.81-9a68.71 68.71 0 01-4.81-5.44h-.12c.16 2.41.24 4.27.24 5.59v8.88h-5V99h5.2zm41.16.68a9.52 9.52 0 01-.88 4.12 8.93 8.93 0 01-2.57 3.22 12.39 12.39 0 01-4.14 2.09 21.17 21.17 0 01-11.17 0 12.39 12.39 0 01-4.14-2.09 9 9 0 01-2.57-3.18 10.06 10.06 0 010-8.23 9 9 0 012.57-3.22 12.21 12.21 0 014.14-2.09 21.17 21.17 0 0111.17 0 12.21 12.21 0 014.14 2.09 8.93 8.93 0 012.57 3.22 9.5 9.5 0 01.88 4.07zm-5.11 0a7.63 7.63 0 00-.61-3.13 6 6 0 00-1.68-2.23 6.92 6.92 0 00-2.54-1.33 12.11 12.11 0 00-6.47 0 6.92 6.92 0 00-2.54 1.33 6.15 6.15 0 00-1.68 2.23 8.49 8.49 0 000 6.27 6.11 6.11 0 001.68 2.22 7.09 7.09 0 002.54 1.34 11.85 11.85 0 006.47 0 7.09 7.09 0 002.54-1.34 6 6 0 001.68-2.22 7.65 7.65 0 00.61-3.14zm15.31-9.81v16.62h12.65v3h-17.6V99.03h4.95zm40.82 9.81a9.52 9.52 0 01-.89 4.12 9 9 0 01-2.56 3.22 12.49 12.49 0 01-4.14 2.09 21.17 21.17 0 01-11.17 0 12.54 12.54 0 01-4.15-2.09 9.12 9.12 0 01-2.56-3.22 10.06 10.06 0 010-8.23 9.12 9.12 0 012.56-3.22 12.35 12.35 0 014.15-2.09 21.17 21.17 0 0111.17 0 12.3 12.3 0 014.14 2.09 9 9 0 012.56 3.22 9.51 9.51 0 01.89 4.11zm-5.12 0a7.63 7.63 0 00-.6-3.13 6.26 6.26 0 00-1.68-2.23 6.89 6.89 0 00-2.55-1.33 12.08 12.08 0 00-6.46 0 7 7 0 00-2.55 1.33 6.12 6.12 0 00-1.67 2.23 8.36 8.36 0 000 6.27 6.09 6.09 0 001.67 2.22 7.14 7.14 0 002.55 1.34 11.82 11.82 0 006.46 0 7.06 7.06 0 002.55-1.34 6.23 6.23 0 001.68-2.22 7.65 7.65 0 00.6-3.14zm27.18 2.32h-6.06v-3h11v9.89c-.41.11-.92.22-1.55.34s-1.32.22-2.1.31-1.57.18-2.4.23-1.63.09-2.44.09a25.44 25.44 0 01-6.35-.71 13.71 13.71 0 01-4.53-2 8.34 8.34 0 01-3.61-7 9.06 9.06 0 01.48-2.91 8.7 8.7 0 011.4-2.57 11.06 11.06 0 012.23-2.13 14 14 0 013-1.63 18.75 18.75 0 013.69-1 24.51 24.51 0 014.32-.36 34.29 34.29 0 013.88.21 24.8 24.8 0 013 .52v3a28.56 28.56 0 00-3.18-.55 27.13 27.13 0 00-3.25-.2 16.93 16.93 0 00-4.12.48 10.56 10.56 0 00-3.32 1.41 7.09 7.09 0 00-2.21 2.29 6.07 6.07 0 00-.81 3.16 6 6 0 002.5 5.21c1.66 1.16 4 1.73 7.05 1.73.57 0 1.15 0 1.76-.06s1.14-.1 1.6-.17zm20.93-3.68l7.19-8.45h5.5l-10.25 11.72v7.9h-4.95v-7.9l-10.24-11.72h5.49l7.2 8.45h.06zm-32.84-78.7L200.4 0h-26.5v84.23h29.71V45.67l15.83 24.52 15.83-24.52v38.56h29.72V0h-26.5l-19.05 28.78zM46.29 61.27h-4.17c-4-.13-6.31-.49-10-3.74-4.07-3.57-5.93-9-5.93-16.2.05-13.59 8.8-18.53 23.54-18.5h21V0H52a75.89 75.89 0 00-19 1.87C16.21 5.71 0 19.16 0 42.48 0 59.7 7.75 72.75 20.12 78.73s21 5.48 27 5.48h23.65v-23zm76.08-27.53c4.22 0 7.42-3.76 7.42-8.37s-3.2-8.37-7.42-8.37H117v16.74zm11.87 50.49H87.6V0H134c12.23 0 23.12 6.63 23.5 23.24.2 8.2-3.87 14.06-9.94 18 6.06 3.94 11.78 11.71 11.59 19.91-.39 16.63-12.95 23.1-25.18 23.1h.28zm-11.89-17.06c4.21 0 7.41-3.76 7.41-8.37s-3.2-8.35-7.41-8.35h-5.42v16.73z" fill="#e10020"/><path d="M242.09 175.15v17h-14.93v-42.82h23.59c6.23 0 11.77 3.37 12 11.83a11.72 11.72 0 01-5 10 11.61 11.61 0 014.16 4.88c1.56 3 4.52 12.67 4.56 16.13h-14.88c-.21-3.35-2.55-10.08-3.84-13s-2.6-4.02-5.66-4.02zm2.76-8.65a4.29 4.29 0 000-8.51h-2.77v8.51zM192 149.33h15.13l17.21 42.87h-15.02l-2.7-7.4h-14.06l-2.69 7.4h-15.05zm7.56 16.08l-3.68 10.17h7.38zM148.87 164l-9.7-14.64h-13.49v42.84h15.13v-19.63l8.06 12.48 8-12.48v19.63H172v-42.87h-13.44zm-56.31-14.67h14.89v30.17h15.46v12.7H92.56zm-35.14 0h15.14l17.21 42.87H74.71L72 184.8H58l-2.69 7.4h-15zM65 165.41l-3.7 10.17h7.37zM37.43 192.2v-24.15H21.27v7.51H25v5h-2.12a6.64 6.64 0 01-5.09-1.91c-2.07-1.81-3-4.58-3-8.23 0-6.93 4.47-9.44 12-9.43h10.64v-11.66h-9.55a38.38 38.38 0 00-9.68.95C9.65 152.23 1.4 159.09 1.4 171c0 8.76 4 15.41 10.25 18.45a27.25 27.25 0 0013.74 2.8z" fill="#018458"/></g></g></svg>