<svg xmlns="http://www.w3.org/2000/svg" viewBox="0 0 266.38 192.2"><defs><style>.cls-1{fill:#e10020;}.cls-1,.cls-2{fill-rule:evenodd;}.cls-2{fill:#018458;}</style></defs><title>galmar</title><g id="Layer_2" data-name="Layer 2"><g id="Layer_1-2" data-name="Layer 1"><polygon class="cls-1" points="13.91 118.65 8.96 118.65 8.96 102.04 0.23 102.04 0.23 99.03 22.62 99.03 22.62 102.04 13.91 102.04 13.91 118.65"/><polygon class="cls-1" points="31.41 115.65 44.7 115.65 44.7 118.65 26.46 118.65 26.46 99.03 43.98 99.03 43.98 102.04 31.41 102.04 31.41 107.12 42.2 107.12 42.2 110.12 31.41 110.12 31.41 115.65"/><path class="cls-1" d="M63.11,101.7a13.74,13.74,0,0,0-3.73.49,8.86,8.86,0,0,0-2.93,1.4,6.61,6.61,0,0,0-1.91,2.29,6.73,6.73,0,0,0-.68,3.1,6.94,6.94,0,0,0,.62,3,5.88,5.88,0,0,0,1.8,2.19,8.14,8.14,0,0,0,2.86,1.33A14.91,14.91,0,0,0,63,116a27.91,27.91,0,0,0,3.14-.17,25.47,25.47,0,0,0,3-.51v3.09a28.86,28.86,0,0,1-3,.46,33.79,33.79,0,0,1-3.4.17,23.29,23.29,0,0,1-6-.71,12.79,12.79,0,0,1-4.35-2,8.39,8.39,0,0,1-2.63-3.11,9,9,0,0,1-.87-4,9.36,9.36,0,0,1,.93-4.16,9.73,9.73,0,0,1,2.71-3.34,13.32,13.32,0,0,1,4.43-2.21,20.87,20.87,0,0,1,6-.82,30.46,30.46,0,0,1,3.26.17,21,21,0,0,1,2.76.47v3.06a24.93,24.93,0,0,0-3-.52A25.53,25.53,0,0,0,63.11,101.7Z"/><polygon class="cls-1" points="79.09 107.11 91.61 107.11 91.61 99.03 96.56 99.03 96.56 118.65 91.61 118.65 91.61 110.12 79.09 110.12 79.09 118.65 74.14 118.65 74.14 99.03 79.09 99.03 79.09 107.11"/><path class="cls-1" d="M117.11,108.16a66,66,0,0,1,4.73,5.33H122c-.16-2.55-.24-4.4-.24-5.57V99h5v19.61h-5.19l-8.81-9a68.71,68.71,0,0,1-4.81-5.44h-.12c.16,2.41.24,4.27.24,5.59v8.88h-5V99h5.2Z"/><path class="cls-1" d="M158.27,108.84a9.52,9.52,0,0,1-.88,4.12,8.93,8.93,0,0,1-2.57,3.22,12.39,12.39,0,0,1-4.14,2.09,21.17,21.17,0,0,1-11.17,0,12.39,12.39,0,0,1-4.14-2.09A9,9,0,0,1,132.8,113a10.06,10.06,0,0,1,0-8.23,9,9,0,0,1,2.57-3.22,12.21,12.21,0,0,1,4.14-2.09,21.17,21.17,0,0,1,11.17,0,12.21,12.21,0,0,1,4.14,2.09,8.93,8.93,0,0,1,2.57,3.22A9.5,9.5,0,0,1,158.27,108.84Zm-5.11,0a7.63,7.63,0,0,0-.61-3.13,6,6,0,0,0-1.68-2.23,6.92,6.92,0,0,0-2.54-1.33,12.11,12.11,0,0,0-6.47,0,6.92,6.92,0,0,0-2.54,1.33,6.15,6.15,0,0,0-1.68,2.23,8.49,8.49,0,0,0,0,6.27,6.11,6.11,0,0,0,1.68,2.22,7.09,7.09,0,0,0,2.54,1.34,11.85,11.85,0,0,0,6.47,0,7.09,7.09,0,0,0,2.54-1.34,6,6,0,0,0,1.68-2.22A7.65,7.65,0,0,0,153.16,108.84Z"/><polygon class="cls-1" points="168.47 99.03 168.47 115.65 181.12 115.65 181.12 118.65 163.52 118.65 163.52 99.03 168.47 99.03"/><path class="cls-1" d="M209.29,108.84a9.52,9.52,0,0,1-.89,4.12,9,9,0,0,1-2.56,3.22,12.49,12.49,0,0,1-4.14,2.09,21.17,21.17,0,0,1-11.17,0,12.54,12.54,0,0,1-4.15-2.09,9.12,9.12,0,0,1-2.56-3.22,10.06,10.06,0,0,1,0-8.23,9.12,9.12,0,0,1,2.56-3.22,12.35,12.35,0,0,1,4.15-2.09,21.17,21.17,0,0,1,11.17,0,12.3,12.3,0,0,1,4.14,2.09,9,9,0,0,1,2.56,3.22A9.51,9.51,0,0,1,209.29,108.84Zm-5.12,0a7.63,7.63,0,0,0-.6-3.13,6.26,6.26,0,0,0-1.68-2.23,6.89,6.89,0,0,0-2.55-1.33,12.08,12.08,0,0,0-6.46,0,7,7,0,0,0-2.55,1.33,6.12,6.12,0,0,0-1.67,2.23,8.36,8.36,0,0,0,0,6.27,6.09,6.09,0,0,0,1.67,2.22,7.14,7.14,0,0,0,2.55,1.34,11.82,11.82,0,0,0,6.46,0,7.06,7.06,0,0,0,2.55-1.34,6.23,6.23,0,0,0,1.68-2.22A7.65,7.65,0,0,0,204.17,108.84Z"/><path class="cls-1" d="M231.35,111.16h-6.06v-3h11v9.89c-.41.11-.92.22-1.55.34s-1.32.22-2.1.31-1.57.18-2.4.23-1.63.09-2.44.09a25.44,25.44,0,0,1-6.35-.71,13.71,13.71,0,0,1-4.53-2,8.34,8.34,0,0,1-3.61-7,9.06,9.06,0,0,1,.48-2.91,8.7,8.7,0,0,1,1.4-2.57,11.06,11.06,0,0,1,2.23-2.13,14,14,0,0,1,3-1.63,18.75,18.75,0,0,1,3.69-1,24.51,24.51,0,0,1,4.32-.36,34.29,34.29,0,0,1,3.88.21,24.8,24.8,0,0,1,3,.52v3a28.56,28.56,0,0,0-3.18-.55,27.13,27.13,0,0,0-3.25-.2,16.93,16.93,0,0,0-4.12.48,10.56,10.56,0,0,0-3.32,1.41,7.09,7.09,0,0,0-2.21,2.29,6.07,6.07,0,0,0-.81,3.16,6,6,0,0,0,2.5,5.21c1.66,1.16,4,1.73,7.05,1.73.57,0,1.15,0,1.76-.06s1.14-.1,1.6-.17Z"/><polygon class="cls-1" points="252.28 107.48 259.47 99.03 264.97 99.03 254.72 110.75 254.72 118.65 249.77 118.65 249.77 110.75 239.53 99.03 245.02 99.03 252.22 107.48 252.28 107.48"/><polygon class="cls-1" points="219.44 28.78 200.4 0 173.9 0 173.9 84.23 203.61 84.23 203.61 45.67 219.44 70.19 235.27 45.67 235.27 84.23 264.99 84.23 264.99 0 238.49 0 219.44 28.78"/><path class="cls-1" d="M46.29,61.27c-1.59,0-3,0-4.17,0-4-.13-6.31-.49-10-3.74-4.07-3.57-5.93-9-5.93-16.2.05-13.59,8.8-18.53,23.54-18.5h21V0H52A75.89,75.89,0,0,0,33,1.87C16.21,5.71,0,19.16,0,42.48,0,59.7,7.75,72.75,20.12,78.73s21,5.48,27,5.48l23.65,0,0-23Z"/><path class="cls-1" d="M122.37,33.74c4.22,0,7.42-3.76,7.42-8.37S126.59,17,122.37,17H117V33.74Zm11.87,50.49H87.6V0H134c12.23,0,23.12,6.63,23.5,23.24.2,8.2-3.87,14.06-9.94,18h0c6.06,3.94,11.78,11.71,11.59,19.91-.39,16.63-12.95,23.1-25.18,23.1h.28ZM122.35,67.17c4.21,0,7.41-3.76,7.41-8.37s-3.2-8.35-7.41-8.35h-5.42V67.18Z"/><path class="cls-2" d="M242.09,175.15v17H227.16V149.33h23.59c6.23,0,11.77,3.37,12,11.83a11.72,11.72,0,0,1-5,10,11.61,11.61,0,0,1,4.16,4.88c1.56,3,4.52,12.67,4.56,16.13H251.59c-.21-3.35-2.55-10.08-3.84-13S245.15,175.15,242.09,175.15Zm2.76-8.65a4.29,4.29,0,0,0,0-8.51h-2.77v8.51ZM192,149.33h15.13l17.21,42.87H209.32l-2.7-7.4H192.56l-2.69,7.4H174.82Zm7.56,16.08-3.68,10.17h7.38ZM148.87,164l-9.7-14.64H125.68V192.2h15.13V172.57l8.06,12.48,8-12.48V192.2h15.13V149.33H158.56ZM92.56,149.33h14.89V179.5h15.46v12.7H92.56Zm-35.14,0H72.56L89.77,192.2H74.71L72,184.8H58l-2.69,7.4h-15ZM65,165.41,61.3,175.58h7.37ZM37.43,192.2V168.05H21.27v7.51H25v5c-.8,0-1.51,0-2.12,0a6.64,6.64,0,0,1-5.09-1.91c-2.07-1.81-3-4.58-3-8.23,0-6.93,4.47-9.44,12-9.43H37.43V149.33H27.88a38.38,38.38,0,0,0-9.68.95C9.65,152.23,1.4,159.09,1.4,171c0,8.76,4,15.41,10.25,18.45a27.25,27.25,0,0,0,13.74,2.8Z"/></g></g></svg>